<svg width="32" height="28" viewBox="0 0 32 28" fill="none" xmlns="http://www.w3.org/2000/svg">
<path d="M14.6429 12.5612C14.5306 12.5497 14.3959 12.5497 14.2724 12.5612C11.6001 12.4688 9.47803 10.2152 9.47803 7.44166C9.47803 4.6103 11.7012 2.31055 14.4632 2.31055C17.2141 2.31055 19.4484 4.6103 19.4484 7.44166C19.4372 10.2152 17.3151 12.4688 14.6429 12.5612Z" stroke="#FAFAFA" stroke-width="2" stroke-linecap="round" stroke-linejoin="round"/>
<path d="M22.7846 4.62305C24.9629 4.62305 26.7144 6.43743 26.7144 8.66784C26.7144 10.852 25.0302 12.6317 22.9306 12.7126C22.8408 12.7011 22.7397 12.7011 22.6387 12.7126" stroke="#FAFAFA" stroke-width="2" stroke-linecap="round" stroke-linejoin="round"/>
<path d="M6.98404 4.62305C4.80583 4.62305 3.05427 6.43743 3.05427 8.66784C3.05427 10.852 4.73846 12.6317 6.83808 12.7126C6.9279 12.7011 7.02895 12.7011 7.13 12.7126" stroke="#FAFAFA" stroke-width="2" stroke-linecap="round" stroke-linejoin="round"/>
<path d="M9.03189 16.8264C6.31473 18.6985 6.31473 21.7495 9.03189 23.6101C12.1196 25.7365 17.1834 25.7365 20.271 23.6101C22.9882 21.7379 22.9882 18.687 20.271 16.8264C17.1946 14.7115 12.1308 14.7115 9.03189 16.8264Z" stroke="#FAFAFA" stroke-width="2" stroke-linecap="round" stroke-linejoin="round"/>
<path d="M24.9517 23.1136C25.7601 22.9403 26.5236 22.6051 27.1523 22.1082C28.9039 20.7561 28.9039 18.5257 27.1523 17.1736C26.5348 16.6882 25.7825 16.3646 24.9853 16.1797" stroke="#FAFAFA" stroke-width="2" stroke-linecap="round" stroke-linejoin="round"/>
<path d="M4.82141 23.1136C4.013 22.9403 3.2495 22.6051 2.62074 22.1082C0.869184 20.7561 0.869184 18.5257 2.62074 17.1736C3.23828 16.6882 3.99054 16.3646 4.78773 16.1797" stroke="#FAFAFA" stroke-width="2" stroke-linecap="round" stroke-linejoin="round"/>
</svg>
