<svg width="32" height="28" viewBox="0 0 32 28" fill="none" xmlns="http://www.w3.org/2000/svg">
<path d="M14.6429 12.562C14.5306 12.5504 14.3959 12.5504 14.2724 12.562C11.6001 12.4695 9.47803 10.216 9.47803 7.44242C9.47803 4.61107 11.7012 2.31131 14.4632 2.31131C17.2141 2.31131 19.4484 4.61107 19.4484 7.44242C19.4372 10.216 17.3151 12.4695 14.6429 12.562Z" stroke="#888888" stroke-width="2" stroke-linecap="round" stroke-linejoin="round"/>
<path d="M22.7846 4.6221C24.9629 4.6221 26.7144 6.43648 26.7144 8.6669C26.7144 10.8511 25.0302 12.6308 22.9306 12.7117C22.8408 12.7001 22.7397 12.7001 22.6387 12.7117" stroke="#888888" stroke-width="2" stroke-linecap="round" stroke-linejoin="round"/>
<path d="M6.98404 4.6221C4.80583 4.6221 3.05427 6.43648 3.05427 8.6669C3.05427 10.8511 4.73846 12.6308 6.83808 12.7117C6.9279 12.7001 7.02895 12.7001 7.13 12.7117" stroke="#888888" stroke-width="2" stroke-linecap="round" stroke-linejoin="round"/>
<path d="M9.03189 16.8259C6.31473 18.698 6.31473 21.7489 9.03189 23.6096C12.1196 25.736 17.1834 25.736 20.271 23.6096C22.9882 21.7374 22.9882 18.6865 20.271 16.8259C17.1946 14.711 12.1308 14.711 9.03189 16.8259Z" stroke="#888888" stroke-width="2" stroke-linecap="round" stroke-linejoin="round"/>
<path d="M24.9517 23.1132C25.7601 22.9398 26.5236 22.6047 27.1523 22.1078C28.9039 20.7557 28.9039 18.5252 27.1523 17.1731C26.5348 16.6877 25.7825 16.3642 24.9853 16.1793" stroke="#888888" stroke-width="2" stroke-linecap="round" stroke-linejoin="round"/>
<path d="M4.82141 23.1132C4.013 22.9398 3.2495 22.6047 2.62074 22.1078C0.869184 20.7557 0.869184 18.5252 2.62074 17.1731C3.23828 16.6877 3.99054 16.3642 4.78773 16.1793" stroke="#888888" stroke-width="2" stroke-linecap="round" stroke-linejoin="round"/>
</svg>
