<svg width="30" height="30" viewBox="0 0 30 30" fill="none" xmlns="http://www.w3.org/2000/svg">
<path d="M15.825 7.01245C9.41251 7.01245 4.20001 10.725 4.20001 15.2625C4.20001 17.4375 5.40001 19.425 7.31251 20.8875L6.07501 25.3125L12.0375 23.0625C13.2375 23.3625 14.5125 23.5125 15.825 23.5125C22.2375 23.5125 27.45 19.8 27.45 15.2625C27.45 10.725 22.2375 7.01245 15.825 7.01245Z" fill="#22C55E"/>
<path d="M5.51251 25.95L6.90001 21.0375C4.91251 19.4625 3.82501 17.4 3.82501 15.2625C3.82501 10.5 9.22501 6.63745 15.825 6.63745C22.425 6.63745 27.825 10.5 27.825 15.2625C27.825 20.025 22.425 23.8875 15.825 23.8875C14.55 23.8875 13.275 23.7375 12.075 23.4375L5.51251 25.95ZM15.825 7.38745C9.63751 7.38745 4.57501 10.9125 4.57501 15.2625C4.57501 17.25 5.62501 19.125 7.53751 20.5875L7.72501 20.7375L6.60001 24.7125L12 22.6875L12.1125 22.725C13.3125 23.025 14.55 23.1749 15.825 23.1749C22.0125 23.1749 27.075 19.65 27.075 15.3C27.075 10.9125 22.0125 7.38745 15.825 7.38745Z" fill="#231C1C"/>
<path d="M9.45001 15.6375C9.45001 15.8344 9.48881 16.0295 9.56419 16.2115C9.63958 16.3935 9.75006 16.5588 9.88935 16.6981C10.0286 16.8374 10.194 16.9479 10.376 17.0233C10.558 17.0987 10.753 17.1375 10.95 17.1375C11.147 17.1375 11.342 17.0987 11.524 17.0233C11.706 16.9479 11.8714 16.8374 12.0107 16.6981C12.15 16.5588 12.2604 16.3935 12.3358 16.2115C12.4112 16.0295 12.45 15.8344 12.45 15.6375C12.45 15.2396 12.292 14.8581 12.0107 14.5768C11.7294 14.2955 11.3478 14.1375 10.95 14.1375C10.5522 14.1375 10.1707 14.2955 9.88935 14.5768C9.60805 14.8581 9.45001 15.2396 9.45001 15.6375Z" fill="#F2E5CA"/>
<path d="M10.95 17.5125C9.90001 17.5125 9.07501 16.6875 9.07501 15.6375C9.07501 14.5875 9.90001 13.7625 10.95 13.7625C12 13.7625 12.825 14.5875 12.825 15.6375C12.825 16.6875 12 17.5125 10.95 17.5125ZM10.95 14.5125C10.3125 14.5125 9.82501 15 9.82501 15.6375C9.82501 16.275 10.3125 16.7625 10.95 16.7625C11.5875 16.7625 12.075 16.275 12.075 15.6375C12.075 15 11.55 14.5125 10.95 14.5125Z" fill="#231C1C"/>
<path d="M14.7 15.6375C14.7 16.0353 14.858 16.4168 15.1394 16.6981C15.4207 16.9794 15.8022 17.1375 16.2 17.1375C16.5978 17.1375 16.9794 16.9794 17.2607 16.6981C17.542 16.4168 17.7 16.0353 17.7 15.6375C17.7 15.4405 17.6612 15.2454 17.5858 15.0634C17.5104 14.8814 17.4 14.7161 17.2607 14.5768C17.1214 14.4375 16.956 14.327 16.774 14.2516C16.592 14.1762 16.397 14.1375 16.2 14.1375C16.003 14.1375 15.808 14.1762 15.626 14.2516C15.444 14.327 15.2786 14.4375 15.1394 14.5768C15.0001 14.7161 14.8896 14.8814 14.8142 15.0634C14.7388 15.2454 14.7 15.4405 14.7 15.6375Z" fill="#F2E5CA"/>
<path d="M16.2 17.5125C15.15 17.5125 14.325 16.6875 14.325 15.6375C14.325 14.5875 15.15 13.7625 16.2 13.7625C17.25 13.7625 18.075 14.5875 18.075 15.6375C18.075 16.6875 17.25 17.5125 16.2 17.5125ZM16.2 14.5125C15.5625 14.5125 15.075 15 15.075 15.6375C15.075 16.275 15.5625 16.7625 16.2 16.7625C16.8375 16.7625 17.325 16.275 17.325 15.6375C17.325 15 16.8 14.5125 16.2 14.5125Z" fill="#231C1C"/>
<path d="M19.95 15.6375C19.95 15.8344 19.9888 16.0295 20.0642 16.2115C20.1396 16.3935 20.2501 16.5588 20.3894 16.6981C20.5286 16.8374 20.694 16.9479 20.876 17.0233C21.058 17.0987 21.253 17.1375 21.45 17.1375C21.647 17.1375 21.842 17.0987 22.024 17.0233C22.206 16.9479 22.3714 16.8374 22.5107 16.6981C22.65 16.5588 22.7604 16.3935 22.8358 16.2115C22.9112 16.0295 22.95 15.8344 22.95 15.6375C22.95 15.4405 22.9112 15.2454 22.8358 15.0634C22.7604 14.8814 22.65 14.7161 22.5107 14.5768C22.3714 14.4375 22.206 14.327 22.024 14.2516C21.842 14.1762 21.647 14.1375 21.45 14.1375C21.253 14.1375 21.058 14.1762 20.876 14.2516C20.694 14.327 20.5286 14.4375 20.3894 14.5768C20.2501 14.7161 20.1396 14.8814 20.0642 15.0634C19.9888 15.2454 19.95 15.4405 19.95 15.6375Z" fill="#F2E5CA"/>
<path d="M21.45 17.5125C20.4 17.5125 19.575 16.6875 19.575 15.6375C19.575 14.5875 20.4 13.7625 21.45 13.7625C22.5 13.7625 23.325 14.5875 23.325 15.6375C23.325 16.6875 22.5 17.5125 21.45 17.5125ZM21.45 14.5125C20.8125 14.5125 20.325 15 20.325 15.6375C20.325 16.275 20.8125 16.7625 21.45 16.7625C22.0875 16.7625 22.575 16.275 22.575 15.6375C22.575 15 22.05 14.5125 21.45 14.5125Z" fill="#231C1C"/>
</svg>
