<svg width="31" height="31" viewBox="0 0 31 31" fill="none" xmlns="http://www.w3.org/2000/svg">
<path d="M25.3572 9.02498L18.1572 3.98748C16.1947 2.61248 13.1822 2.68748 11.2947 4.14998L5.03218 9.03748C3.78218 10.0125 2.79468 12.0125 2.79468 13.5875V22.2125C2.79468 25.4 5.38218 28 8.56968 28H22.0447C25.2322 28 27.8197 25.4125 27.8197 22.225V13.75C27.8197 12.0625 26.7322 9.98748 25.3572 9.02498ZM16.2447 23C16.2447 23.5125 15.8197 23.9375 15.3072 23.9375C14.7947 23.9375 14.3697 23.5125 14.3697 23V19.25C14.3697 18.7375 14.7947 18.3125 15.3072 18.3125C15.8197 18.3125 16.2447 18.7375 16.2447 19.25V23Z" fill="#FAFAFA"/>
</svg>
