<svg width="31" height="31" viewBox="0 0 31 31" fill="none" xmlns="http://www.w3.org/2000/svg">
<path d="M1.30713 10.0819V4.75C1.30713 3.64543 2.20256 2.75 3.30713 2.75H15.3071H27.3071C28.4117 2.75 29.3071 3.64543 29.3071 4.75V10.0819V20.9219V26.25C29.3071 27.3546 28.4117 28.25 27.3071 28.25H15.3071H3.30713C2.20256 28.25 1.30713 27.3546 1.30713 26.25V20.9219V10.0819Z" stroke="#888888" stroke-width="2"/>
<path d="M19.3071 15.5C19.3071 17.7091 17.5163 19.5 15.3071 19.5C13.098 19.5 11.3071 17.7091 11.3071 15.5C11.3071 13.2909 13.098 11.5 15.3071 11.5C17.5163 11.5 19.3071 13.2909 19.3071 15.5Z" stroke="#888888" stroke-width="2"/>
</svg>
