<svg width="31" height="31" viewBox="0 0 31 31" fill="none" xmlns="http://www.w3.org/2000/svg">
<path d="M1.30664 10.0819V4.75C1.30664 3.64543 2.20207 2.75 3.30664 2.75H15.3066H27.3066C28.4112 2.75 29.3066 3.64543 29.3066 4.75V10.0819V20.9219V26.25C29.3066 27.3546 28.4112 28.25 27.3066 28.25H15.3066H3.30664C2.20207 28.25 1.30664 27.3546 1.30664 26.25V20.9219V10.0819Z" fill="#FAFAFA" stroke="#111413" stroke-width="2"/>
<path d="M19.3066 15.5C19.3066 17.7091 17.5158 19.5 15.3066 19.5C13.0975 19.5 11.3066 17.7091 11.3066 15.5C11.3066 13.2909 13.0975 11.5 15.3066 11.5C17.5158 11.5 19.3066 13.2909 19.3066 15.5Z" stroke="#111413" stroke-width="2"/>
</svg>
