<svg width="31" height="31" viewBox="0 0 31 31" fill="none" xmlns="http://www.w3.org/2000/svg">
<path d="M21.5566 3H9.05664C5.60664 3 2.80664 5.7875 2.80664 9.225V16.7V17.95C2.80664 21.3875 5.60664 24.175 9.05664 24.175H10.9316C11.2691 24.175 11.7191 24.4 11.9316 24.675L13.8066 27.1625C14.6316 28.2625 15.9816 28.2625 16.8066 27.1625L18.6816 24.675C18.9191 24.3625 19.2941 24.175 19.6816 24.175H21.5566C25.0066 24.175 27.8066 21.3875 27.8066 17.95V9.225C27.8066 5.7875 25.0066 3 21.5566 3ZM16.5566 17.6875H9.05664C8.54414 17.6875 8.11914 17.2625 8.11914 16.75C8.11914 16.2375 8.54414 15.8125 9.05664 15.8125H16.5566C17.0691 15.8125 17.4941 16.2375 17.4941 16.75C17.4941 17.2625 17.0691 17.6875 16.5566 17.6875ZM21.5566 11.4375H9.05664C8.54414 11.4375 8.11914 11.0125 8.11914 10.5C8.11914 9.9875 8.54414 9.5625 9.05664 9.5625H21.5566C22.0691 9.5625 22.4941 9.9875 22.4941 10.5C22.4941 11.0125 22.0691 11.4375 21.5566 11.4375Z" fill="#FAFAFA"/>
</svg>
