<svg width="31" height="31" viewBox="0 0 31 31" fill="none" xmlns="http://www.w3.org/2000/svg">
<path d="M10.9321 24.25H10.3071C5.30713 24.25 2.80713 23 2.80713 16.75V10.5C2.80713 5.5 5.30713 3 10.3071 3H20.3071C25.3071 3 27.8071 5.5 27.8071 10.5V16.75C27.8071 21.75 25.3071 24.25 20.3071 24.25H19.6821C19.2946 24.25 18.9196 24.4375 18.6821 24.75L16.8071 27.25C15.9821 28.35 14.6321 28.35 13.8071 27.25L11.9321 24.75C11.7321 24.475 11.2696 24.25 10.9321 24.25Z" stroke="#888888" stroke-width="1.5" stroke-miterlimit="10" stroke-linecap="round" stroke-linejoin="round"/>
<path d="M9.05713 10.5H21.5571" stroke="#888888" stroke-width="1.5" stroke-linecap="round" stroke-linejoin="round"/>
<path d="M9.05713 16.75H16.5571" stroke="#888888" stroke-width="1.5" stroke-linecap="round" stroke-linejoin="round"/>
</svg>
