<svg width="33" height="33" viewBox="0 0 33 33" fill="none" xmlns="http://www.w3.org/2000/svg">
<path d="M6.75 5.00011C6.75 3.23494 8.25254 1.75011 10.1739 1.75011H25.8261C27.7475 1.75011 29.25 3.23494 29.25 5.00011V25.0001C29.25 26.7653 27.7475 28.2501 25.8261 28.2501H10.1739C8.25254 28.2501 6.75 26.7653 6.75 25.0001V5.00011Z" stroke="#888888" stroke-width="1.5"/>
<path d="M1.75 7.99998C1.75 7.58577 1.41421 7.24998 1 7.24998C0.585786 7.24998 0.25 7.58577 0.25 7.99998H1.75ZM4.97152 27.9713L4.96618 28.7213L4.97152 27.9713ZM0.25 7.99998V23.9714H1.75V7.99998H0.25ZM4.96618 28.7213L8.99466 28.75L9.00534 27.25L4.97686 27.2213L4.96618 28.7213ZM0.25 23.9714C0.25 26.5816 2.35609 28.7027 4.96618 28.7213L4.97686 27.2213C3.19101 27.2086 1.75 25.7573 1.75 23.9714H0.25Z" fill="#888888"/>
<path d="M10.3071 9.94444L25.3071 9.94444" stroke="#888888" stroke-width="2" stroke-linecap="round"/>
<path d="M10.3071 14.9444L25.3071 14.9444" stroke="#888888" stroke-width="2" stroke-linecap="round"/>
<path d="M10.3071 19.9444L25.3071 19.9444" stroke="#888888" stroke-width="2" stroke-linecap="round"/>
</svg>
