<svg width="33" height="33" viewBox="0 0 33 33" fill="none" xmlns="http://www.w3.org/2000/svg">
<path d="M6.75 5C6.75 3.23484 8.25254 1.75 10.1739 1.75H25.8261C27.7475 1.75 29.25 3.23484 29.25 5V25C29.25 26.7652 27.7475 28.25 25.8261 28.25H10.1739C8.25254 28.25 6.75 26.7652 6.75 25V5Z" fill="#FAFAFA" stroke="#FAFAFA" stroke-width="1.5"/>
<path d="M1.75 8C1.75 7.58579 1.41421 7.25 1 7.25C0.585786 7.25 0.25 7.58579 0.25 8H1.75ZM4.97152 27.9713L4.96618 28.7213L4.97152 27.9713ZM0.25 8V23.9714H1.75V8H0.25ZM4.96618 28.7213L8.99466 28.75L9.00534 27.25L4.97686 27.2213L4.96618 28.7213ZM0.25 23.9714C0.25 26.5816 2.35609 28.7027 4.96618 28.7213L4.97686 27.2213C3.19101 27.2086 1.75 25.7573 1.75 23.9714H0.25Z" fill="#FAFAFA"/>
<path d="M10.3066 9.94434L25.3066 9.94434" stroke="#111413" stroke-width="2" stroke-linecap="round"/>
<path d="M10.3066 14.9443L25.3066 14.9443" stroke="#111413" stroke-width="2" stroke-linecap="round"/>
<path d="M10.3066 19.9443L25.3066 19.9443" stroke="#111413" stroke-width="2" stroke-linecap="round"/>
</svg>
