<svg width="33" height="33" viewBox="0 0 33 33" fill="none" xmlns="http://www.w3.org/2000/svg">
<path d="M16.3338 4.16667C11.9794 4.16667 8.45378 7.69229 8.45378 12.0467V14.8467C8.45378 15.4176 8.33963 16.0775 8.1728 16.6825C8.00631 17.2863 7.76625 17.9119 7.47091 18.4018C7.47059 18.4023 7.47028 18.4028 7.46997 18.4033L5.77967 21.2249C5.77943 21.2253 5.7792 21.2257 5.77896 21.2261C5.39931 21.8645 5.37289 22.4732 5.54848 22.9485C5.72403 23.4237 6.13815 23.8651 6.83668 24.098C13.0049 26.1496 19.6766 26.1496 25.8448 24.0978C27.0341 23.701 27.5492 22.3085 26.9026 21.2272L16.3338 4.16667ZM16.3338 4.16667C20.6605 4.16667 24.2145 7.71828 24.2271 12.048V14.8467C24.2271 15.4115 24.3415 16.0715 24.5079 16.6768C24.674 17.281 24.914 17.9109 25.2102 18.4021C25.2104 18.4025 25.2107 18.4029 25.2109 18.4033L26.9023 21.2268L16.3338 4.16667Z" stroke="#888888" stroke-width="2" stroke-miterlimit="10" stroke-linecap="round"/>
<path d="M16.3071 9.08667V13.5267" stroke="#888888" stroke-width="2" stroke-miterlimit="10" stroke-linecap="round"/>
<mask id="path-3-inside-1_408_3025" fill="white">
<path d="M20.7472 25.5933C20.7472 28.0333 18.7472 30.0333 16.3072 30.0333C15.0939 30.0333 13.9739 29.5267 13.1739 28.7267C12.3739 27.9267 11.8672 26.8067 11.8672 25.5933"/>
</mask>
<path d="M18.7472 25.5933C18.7472 26.9288 17.6426 28.0333 16.3072 28.0333V32.0333C19.8518 32.0333 22.7472 29.1379 22.7472 25.5933H18.7472ZM16.3072 28.0333C15.6536 28.0333 15.0343 27.7587 14.5881 27.3125L11.7596 30.1409C12.9134 31.2947 14.5341 32.0333 16.3072 32.0333V28.0333ZM14.5881 27.3125C14.1419 26.8663 13.8672 26.2469 13.8672 25.5933H9.86719C9.86719 27.3665 10.6058 28.9871 11.7596 30.1409L14.5881 27.3125Z" fill="#888888" mask="url(#path-3-inside-1_408_3025)"/>
</svg>
