<svg width="31" height="31" viewBox="0 0 31 31" fill="none" xmlns="http://www.w3.org/2000/svg">
<path d="M15.3338 3.16602C10.9794 3.16602 7.45378 6.69163 7.45378 11.046V13.846C7.45378 14.4169 7.33963 15.0769 7.1728 15.6819C7.00631 16.2856 6.76625 16.9112 6.47091 17.4011C6.47059 17.4016 6.47028 17.4022 6.46997 17.4027L4.77967 20.2243C4.77943 20.2247 4.7792 20.2251 4.77896 20.2255C4.39931 20.8638 4.37289 21.4725 4.54848 21.9478C4.72403 22.423 5.13815 22.8645 5.83668 23.0973C12.0049 25.149 18.6766 25.1489 24.8448 23.0971C26.0341 22.7003 26.5492 21.3078 25.9026 20.2266L15.3338 3.16602ZM15.3338 3.16602C19.6605 3.16602 23.2145 6.71762 23.2271 11.0474V13.846C23.2271 14.4108 23.3415 15.0708 23.5079 15.6761C23.674 16.2803 23.914 16.9103 24.2102 17.4015C24.2104 17.4019 24.2107 17.4023 24.2109 17.4027L25.9023 20.2261L15.3338 3.16602Z" fill="#FAFAFA" stroke="#FAFAFA" stroke-width="2" stroke-miterlimit="10" stroke-linecap="round"/>
<path d="M15.3071 8.08594V12.5259" stroke="#090D09" stroke-width="2" stroke-miterlimit="10" stroke-linecap="round"/>
<mask id="path-3-inside-1_408_10928" fill="white">
<path d="M19.7472 24.5938C19.7472 27.0338 17.7472 29.0338 15.3072 29.0338C14.0939 29.0338 12.9739 28.5271 12.1739 27.7271C11.3739 26.9271 10.8672 25.8071 10.8672 24.5938"/>
</mask>
<path d="M17.7472 24.5938C17.7472 25.9292 16.6426 27.0338 15.3072 27.0338V31.0338C18.8518 31.0338 21.7472 28.1383 21.7472 24.5938H17.7472ZM15.3072 27.0338C14.6536 27.0338 14.0343 26.7591 13.5881 26.3129L10.7596 29.1413C11.9134 30.2951 13.5341 31.0338 15.3072 31.0338V27.0338ZM13.5881 26.3129C13.1419 25.8667 12.8672 25.2473 12.8672 24.5938H8.86719C8.86719 26.3669 9.60585 27.9875 10.7596 29.1413L13.5881 26.3129Z" fill="#FAFAFA" mask="url(#path-3-inside-1_408_10928)"/>
</svg>
