<svg width="16" height="16" viewBox="0 0 16 16" fill="none" xmlns="http://www.w3.org/2000/svg">
<path d="M12.6746 1.50667L10.2319 5.00533C10.1813 5.07733 10.0746 5.072 10.0293 4.99733L7.09595 0.0506665C7.39195 0.0159998 7.69328 0 7.99995 0C9.74661 0 11.3599 0.557333 12.6746 1.50667Z" fill="#22C55E"/>
<path d="M12.1681 14.8293C10.9548 15.5733 9.52809 16 8.00009 16C7.64276 16 7.29076 15.976 6.94409 15.9307L8.38943 12.5653L12.1681 14.8293Z" fill="#22C55E"/>
<path d="M4.01067 9.89595L1.60267 12.8053C0.597334 11.4666 0 9.80262 0 7.99995C0 7.77595 0.008 7.55195 0.0266667 7.33062L4.01067 9.89595Z" fill="#22C55E"/>
<path d="M9.12533 5.77865L6.84266 9.09599L5.04266 9.16532L0.23999 6.05065C0.933324 3.27465 3.07999 1.07465 5.82399 0.301319L9.12533 5.77865Z" fill="#22C55E"/>
<path d="M7.44803 11.76L5.73603 15.6747C4.47203 15.304 3.3387 14.6267 2.4187 13.7307L5.17337 10.344L6.84003 10.2907L7.44803 11.76Z" fill="#22C55E"/>
<path d="M16 8.0773C15.9787 10.472 14.9014 12.616 13.2134 14.0666L8.55203 11.3413L7.8667 9.68264L10.0907 6.44797C10.2374 6.23464 10.5094 6.14397 10.7547 6.23197L16 8.0773Z" fill="#22C55E"/>
<path d="M15.9067 6.76798L11.552 5.28531C11.52 5.27465 11.5067 5.23465 11.5254 5.20531L13.6 2.28798C14.8054 3.46931 15.6374 5.02664 15.9067 6.76798Z" fill="#22C55E"/>
</svg>
