<svg width="31" height="30" viewBox="0 0 31 30" fill="none" xmlns="http://www.w3.org/2000/svg">
<path d="M4.08844 20.5387L8.29261 17.3237C8.05222 16.5936 7.92223 15.8125 7.92223 15C7.92223 14.1875 8.05222 13.4064 8.29261 12.6763L4.08844 9.46133C3.26848 11.1284 2.80859 13.0079 2.80859 15C2.80859 16.9921 3.26848 18.8716 4.08844 20.5387Z" fill="#FBBC05"/>
<path d="M8.29303 12.6763C9.26302 9.73008 12.0306 7.61364 15.309 7.61364C17.0704 7.61364 18.6613 8.23864 19.9113 9.26136L23.5477 5.625C21.3317 3.69318 18.4908 2.5 15.309 2.5C10.3693 2.5 6.12209 5.32762 4.08887 9.46133L8.29303 12.6763Z" fill="#EA4335"/>
<path d="M15.3088 27.5C10.3677 27.5 6.11947 24.6708 4.08691 20.5352L8.28936 17.3134C9.25627 20.2649 12.0265 22.3864 15.3088 22.3864C16.9149 22.3864 18.338 22.0081 19.465 21.2969L23.4562 24.3869C21.2713 26.4183 18.3577 27.5 15.3088 27.5Z" fill="#34A853"/>
<path d="M15.3086 12.7273H26.9563C27.1268 13.4659 27.2404 14.2614 27.2404 15C27.2404 19.0741 25.7499 22.254 23.456 24.3868L19.4648 21.2969C20.7698 20.4733 21.6778 19.2032 22.0131 17.5568H15.3086V12.7273Z" fill="#4285F4"/>
</svg>
