<svg width="166" height="40" viewBox="0 0 166 40" fill="none" xmlns="http://www.w3.org/2000/svg">
<path d="M62.7495 13.1245H50.9487V17.1522H61.5694C60.7998 18.794 61.1589 21.4364 61.1589 21.4364H50.9487V31.0566H46.7671V8.94293H66.6745C64.0835 10.5591 62.7495 13.1245 62.7495 13.1245Z" fill="#F2FFF7"/>
<path d="M86.8639 19.8716C86.8639 23.0526 85.7351 25.772 83.4519 28.0295C81.1687 30.287 78.4494 31.4415 75.3196 31.4415C72.1642 31.4415 69.4706 30.3127 67.1874 28.0295C64.9042 25.772 63.7754 23.0783 63.7754 19.9485C63.7754 16.7418 64.8785 14.0225 67.1104 11.8419C69.3423 9.66132 72.0616 8.5582 75.3196 8.5582C78.3981 8.5582 81.0918 9.68697 83.4006 11.9189C85.7095 14.1764 86.8639 16.8188 86.8639 19.8716ZM82.6567 19.8716V19.9485C82.6567 17.9732 81.9383 16.28 80.5017 14.8947C79.0651 13.5094 77.3206 12.8167 75.294 12.8167C73.2673 12.8167 71.5229 13.5094 70.0863 14.8691C68.6496 16.2287 67.9313 17.8962 67.9313 19.8972C67.9313 21.8982 68.6496 23.617 70.0863 25.0537C71.5229 26.4903 73.2673 27.2086 75.294 27.2086C77.3206 27.2086 79.0651 26.4903 80.5017 25.0537C81.9383 23.617 82.6567 21.8982 82.6567 19.8716Z" fill="#F2FFF7"/>
<path d="M109.901 31.0566H105.72L93.3034 15.7669V31.0566H89.1218V8.94293H93.2521L105.669 24.3866V8.94293H109.927V31.0566H109.901Z" fill="#F2FFF7"/>
<path d="M113.75 31.0566V8.94293H117.931V31.0566H113.75Z" fill="#F2FFF7"/>
<path d="M141.353 24.7711C141.353 26.8748 140.506 28.491 138.813 29.671C137.12 30.8511 134.734 31.4411 131.656 31.4411C127.397 31.4411 123.754 30.338 120.65 28.1061L123.062 24.6685C125.499 26.336 128.321 27.1826 131.502 27.1826C135.324 27.1826 137.248 26.336 137.248 24.6172C137.248 23.5911 136.556 22.7958 135.145 22.2827C134.375 22.0005 133.067 21.667 131.245 21.3335C129.296 20.9487 127.885 20.6409 127.064 20.3843C125.601 19.9226 124.498 19.3325 123.754 18.5885C122.6 17.4341 122.035 16.1514 122.035 14.6892C122.035 9.89188 127.885 8.66049 131.733 8.73746C134.503 8.78876 137.043 9.55838 139.48 10.8154C139.634 10.8924 141.378 11.8416 141.353 11.8672C141.353 11.8672 140.121 13.6887 139.454 15.4075C135.273 12.406 132.169 12.8164 130.399 12.8421C129.347 12.8421 126.217 13.073 126.217 14.6379C126.217 15.4588 126.935 16.0745 128.398 16.5106C128.603 16.5619 129.68 16.7415 131.63 17.1006C134.375 17.5881 136.53 18.2294 138.095 19.0503C139.095 19.589 139.865 20.3587 140.455 21.3848C141.071 22.411 141.353 23.5397 141.353 24.7711Z" fill="#F2FFF7"/>
<path d="M165.494 19.8716C165.494 23.0526 164.365 25.772 162.082 28.0295C159.799 30.287 157.079 31.4415 153.95 31.4415C150.794 31.4415 148.1 30.3127 145.817 28.0295C143.534 25.772 142.405 23.0783 142.405 19.9485C142.405 16.7418 143.508 14.0225 145.74 11.8419C147.972 9.66132 150.691 8.5582 153.95 8.5582C157.028 8.5582 159.722 9.68697 162.031 11.9189C164.339 14.1764 165.494 16.8188 165.494 19.8716ZM161.287 19.8716V19.9485C161.287 17.9732 160.568 16.28 159.132 14.8947C157.695 13.5094 155.951 12.8167 153.924 12.8167C151.897 12.8167 150.153 13.5094 148.716 14.8691C147.28 16.2287 146.561 17.8962 146.561 19.8972C146.561 21.8982 147.28 23.617 148.716 25.0537C150.153 26.4903 151.897 27.2086 153.924 27.2086C155.951 27.2086 157.695 26.4903 159.132 25.0537C160.568 23.617 161.287 21.8982 161.287 19.8716Z" fill="#F2FFF7"/>
<path d="M30.4768 4.37678L24.6021 12.7913C24.4738 12.9708 24.2173 12.9452 24.1146 12.7656L17.0598 0.887852C17.7781 0.81089 18.4964 0.759583 19.2404 0.759583C23.422 0.759583 27.2957 2.09359 30.4768 4.37678Z" fill="#22C55E"/>
<path d="M29.2455 36.4187C26.3209 38.2145 22.8833 39.2406 19.2148 39.2406C18.3426 39.2406 17.496 39.1893 16.675 39.061L20.164 30.9801L29.2455 36.4187Z" fill="#22C55E"/>
<path d="M9.62021 24.566L3.84808 31.5439C1.43662 28.3371 0 24.3351 0 19.9996C0 19.4609 0.0256547 18.9222 0.0769625 18.3834L9.62021 24.566Z" fill="#22C55E"/>
<path d="M21.9339 14.6645L16.444 22.6428L12.1085 22.8224L0.564209 15.3315C2.23171 8.66145 7.38815 3.37675 13.9812 1.50401L21.9339 14.6645Z" fill="#22C55E"/>
<path d="M17.9065 29.0312L13.7762 38.4462C10.7234 37.5483 8.00409 35.9321 5.79785 33.7772L12.4422 25.6449L16.4442 25.5166L17.9065 29.0312Z" fill="#22C55E"/>
<path d="M38.455 20.1793C38.4037 25.9514 35.8127 31.0822 31.7593 34.5968L20.5486 28.0294L18.9067 24.053L24.2427 16.2799C24.6019 15.7668 25.2433 15.5616 25.8333 15.7668L38.455 20.1793Z" fill="#22C55E"/>
<path d="M38.2499 17.0499L27.7831 13.484C27.7061 13.4583 27.6805 13.3557 27.7318 13.3044L32.7343 6.27522C35.5819 9.09715 37.5829 12.8426 38.2499 17.0499Z" fill="#22C55E"/>
</svg>
