<svg width="15" height="15" viewBox="0 0 15 15" fill="none" xmlns="http://www.w3.org/2000/svg">
<g clip-path="url(#clip0_13_1674)">
<path d="M13.3056 7.10128C13.3213 8.43436 12.8855 9.76045 12.0293 10.8357H12.0289L9.86533 10.413L9.00211 9.45712L9.97242 6.47276L11.6543 6.22101L13.3056 7.10128Z" fill="#FAFAFA"/>
<path d="M13.3056 7.10131L11.6543 6.22103L12.5726 4.32849C13.0542 5.19696 13.2951 6.15066 13.3056 7.10131Z" fill="#222623"/>
<path d="M12.5726 4.32847L11.6543 6.22101L9.97241 6.47277L7.40284 4.62918V3.35641L7.41551 3.34636L9.47109 1.67367L9.47589 1.66055C10.472 2.03032 11.3802 2.67413 12.0778 3.5767C12.2644 3.81796 12.4292 4.06928 12.5726 4.32847Z" fill="#FAFAFA"/>
<path d="M12.0289 10.8357H12.0293C11.7408 11.1984 11.4043 11.5324 11.0214 11.8283C10.5725 12.1753 10.0891 12.4472 9.58648 12.6456L9.86533 10.413L12.0289 10.8357ZM9.97241 6.47277L9.0021 9.45713H5.86564L4.89533 6.47277L7.40284 4.62918L9.97241 6.47277Z" fill="#222623"/>
<path d="M9.00211 9.45712L9.86533 10.413L9.58648 12.6456C8.2429 13.178 6.76165 13.1867 5.43206 12.7094L5.14491 10.413L5.86564 9.45712H9.00211Z" fill="#FAFAFA"/>
<path d="M9.4759 1.66056L9.47109 1.67368L7.41552 3.34637L7.40284 3.35642L5.33503 1.67368C6.67948 1.16273 8.15505 1.1706 9.4759 1.66056Z" fill="#222623"/>
<path d="M7.40284 3.35642V4.62919L4.89533 6.47278L3.35595 6.22102L2.42585 4.30357L2.31527 4.25505C2.68853 3.60162 3.19423 3.00938 3.82668 2.52029C4.29741 2.15621 4.80617 1.87473 5.33503 1.67368L7.40284 3.35642Z" fill="#FAFAFA"/>
<path d="M4.89533 6.47276L5.86564 9.45712L5.1449 10.413L2.84238 10.8628C2.81791 10.8326 2.79387 10.802 2.76983 10.771C1.94419 9.7032 1.54383 8.44092 1.54165 7.18826H1.54208L3.35595 6.22101L4.89533 6.47276Z" fill="#FAFAFA"/>
<path d="M5.14491 10.413L5.43207 12.7094C4.44646 12.3558 3.54389 11.7352 2.84239 10.8628L5.14491 10.413ZM1.54165 7.18826C1.5399 6.16812 1.80258 5.15366 2.31527 4.25504L2.42585 4.30355L3.35595 6.22101L1.54165 7.18826Z" fill="#222623"/>
<path d="M7.42806 13.3625C6.71244 13.3629 6.00215 13.2394 5.32869 12.9974C4.25991 12.614 3.3177 11.9421 2.60396 11.0545C2.57883 11.0235 2.55339 10.9912 2.52795 10.9584C1.68492 9.86802 1.23809 8.56457 1.23573 7.18879C1.2339 6.10676 1.51529 5.03986 2.04957 4.10346C2.45395 3.39544 2.98885 2.78144 3.63952 2.27823C4.12429 1.90331 4.65817 1.60365 5.22633 1.38769C5.92797 1.12103 6.66597 0.98584 7.41984 0.98584C8.16091 0.98584 8.88851 1.11635 9.58237 1.37375C10.6645 1.77542 11.6111 2.47251 12.32 3.38963C12.5133 3.63959 12.6873 3.90396 12.8403 4.18043C13.3336 5.06971 13.6003 6.07866 13.6116 7.09796C13.6284 8.52261 13.1515 9.9178 12.2687 11.0263C11.9585 11.4157 11.6026 11.7662 11.2085 12.0704C10.7483 12.4267 10.2401 12.7162 9.69885 12.9302C8.97483 13.217 8.21073 13.3625 7.42806 13.3625ZM7.4198 1.5977C6.7405 1.5977 6.07566 1.71947 5.44373 1.95965C4.932 2.15419 4.45091 2.42422 4.01388 2.76229C3.42724 3.21594 2.9451 3.76927 2.58092 4.40679C2.09953 5.25057 1.84594 6.21223 1.8476 7.18774C1.84974 8.4272 2.25233 9.60158 3.01188 10.5838C3.03439 10.6129 3.05703 10.6417 3.08007 10.6701C3.72388 11.4708 4.57268 12.0761 5.53539 12.4214C6.14254 12.6396 6.78289 12.751 7.42806 12.7506C8.13324 12.7506 8.8215 12.6196 9.4738 12.3612C9.96153 12.1682 10.4195 11.9073 10.8342 11.5862C11.1895 11.3121 11.5103 10.9962 11.7899 10.6452C12.5852 9.64651 13.0148 8.38926 12.9997 7.10491C12.9896 6.18661 12.7493 5.27793 12.305 4.4769C12.167 4.22766 12.0102 3.98932 11.8358 3.76394C11.197 2.93734 10.3441 2.30922 9.36947 1.94741C8.74559 1.71566 8.08533 1.59723 7.4198 1.5977Z" fill="#222623"/>
<path d="M9.0021 9.7631H5.86564C5.80104 9.7631 5.73809 9.74265 5.68583 9.70468C5.63356 9.66671 5.59465 9.61317 5.57468 9.55173L4.60437 6.56742C4.58447 6.50625 4.58436 6.44036 4.60405 6.37913C4.62375 6.31789 4.66225 6.26442 4.71408 6.22632L7.22159 4.38273C7.27363 4.34447 7.33644 4.32366 7.40104 4.32328C7.46563 4.32291 7.52868 4.34298 7.58117 4.38064L10.1507 6.22423C10.2035 6.26208 10.2428 6.31574 10.2631 6.37743C10.2833 6.43913 10.2834 6.50567 10.2633 6.56742L9.29307 9.55173C9.27311 9.61318 9.2342 9.66673 9.18193 9.7047C9.12966 9.74267 9.06671 9.76311 9.0021 9.7631ZM6.0879 9.1512H8.77985L9.61226 6.59098L7.40503 5.00736L5.25461 6.5884L6.0879 9.1512ZM7.40267 3.66239C7.33236 3.66245 7.2642 3.63819 7.20974 3.59372L5.14687 1.915C5.11011 1.88643 5.08037 1.84984 5.05992 1.80802C5.03948 1.76619 5.02887 1.72024 5.0289 1.67369C5.0289 1.50472 5.16562 1.36774 5.33464 1.36774C5.40496 1.36774 5.47363 1.39199 5.52822 1.4364L7.59603 3.11915C7.64504 3.15904 7.6805 3.21313 7.69753 3.27399C7.71456 3.33485 7.71232 3.39949 7.69113 3.45903C7.66994 3.51857 7.63083 3.57008 7.57918 3.6065C7.52753 3.64291 7.46586 3.66244 7.40267 3.66239ZM1.54234 7.49428C1.47407 7.49437 1.40772 7.47161 1.35387 7.42964C1.30002 7.38766 1.26176 7.32888 1.24517 7.26265C1.22859 7.19642 1.23463 7.12654 1.26235 7.06414C1.29006 7.00174 1.33785 6.95041 1.39811 6.9183L2.95218 6.08961L2.15058 4.43711C2.11629 4.36424 2.1121 4.2808 2.13893 4.20487C2.16576 4.12894 2.22144 4.06664 2.29389 4.03149C2.36634 3.99634 2.44973 3.99117 2.52598 4.0171C2.60222 4.04303 2.66516 4.09797 2.70117 4.17001L3.63126 6.08746C3.6658 6.15865 3.67142 6.24044 3.64693 6.31568C3.62245 6.39092 3.56978 6.45374 3.49997 6.49097L1.6861 7.45822C1.64188 7.48189 1.5925 7.49427 1.54234 7.49428ZM5.43167 13.0154C5.35716 13.0153 5.28525 12.988 5.22943 12.9387C5.1736 12.8893 5.13771 12.8213 5.12847 12.7474L4.88196 10.7761L2.901 11.1631C2.7353 11.1956 2.5745 11.0873 2.54207 10.9214C2.52652 10.8418 2.54323 10.7593 2.58854 10.6919C2.63386 10.6246 2.70405 10.5781 2.78369 10.5625L5.0862 10.1128C5.12737 10.1047 5.16974 10.1052 5.2107 10.1143C5.25166 10.1233 5.29032 10.1407 5.32429 10.1653C5.35825 10.1899 5.3868 10.2212 5.40815 10.2573C5.4295 10.2934 5.44321 10.3335 5.44841 10.3751L5.73557 12.6715C5.74096 12.7146 5.73712 12.7583 5.72431 12.7998C5.71149 12.8413 5.69 12.8795 5.66126 12.9121C5.63251 12.9446 5.59717 12.9706 5.55759 12.9885C5.51801 13.0063 5.47508 13.0155 5.43167 13.0154ZM13.3053 7.4073C13.2552 7.40728 13.2059 7.39491 13.1617 7.37129L11.5104 6.49102C11.4406 6.45379 11.3879 6.39096 11.3634 6.31571C11.3389 6.24047 11.3445 6.15866 11.3791 6.08746L12.2954 4.19899C12.3596 4.06096 12.5183 3.98875 12.6668 4.03666C12.8276 4.08854 12.9161 4.26031 12.8642 4.42111L12.8638 4.42242C12.8594 4.43598 12.8541 4.44923 12.8479 4.46206L12.0582 6.08961L13.4496 6.83133C13.5098 6.86343 13.5576 6.91476 13.5853 6.97716C13.6131 7.03956 13.6191 7.10944 13.6025 7.17567C13.5859 7.2419 13.5477 7.30069 13.4938 7.34266C13.44 7.38463 13.3736 7.40739 13.3053 7.4073ZM9.58648 12.9518C9.54307 12.9518 9.50014 12.9426 9.46057 12.9248C9.421 12.9069 9.38567 12.8809 9.35695 12.8483C9.32823 12.8158 9.30677 12.7775 9.294 12.736C9.28123 12.6945 9.27744 12.6508 9.28288 12.6077L9.56178 10.3751C9.567 10.3335 9.58071 10.2934 9.60207 10.2573C9.62343 10.2212 9.65198 10.1899 9.68595 10.1653C9.71991 10.1407 9.75858 10.1233 9.79953 10.1143C9.84049 10.1053 9.88286 10.1047 9.92403 10.1128L12.0876 10.5354C12.127 10.5431 12.1645 10.5585 12.198 10.5807C12.2315 10.6029 12.2603 10.6315 12.2827 10.6648C12.3052 10.6982 12.3208 10.7356 12.3288 10.775C12.3367 10.8143 12.3369 10.8549 12.3292 10.8943C12.3215 10.9338 12.3061 10.9713 12.2839 11.0048C12.2617 11.0383 12.2331 11.0671 12.1998 11.0895C12.1665 11.112 12.129 11.1276 12.0896 11.1356C12.0503 11.1436 12.0097 11.1437 11.9702 11.136L10.1283 10.7762L9.89059 12.6795C9.88225 12.7544 9.84663 12.8235 9.79052 12.8737C9.73442 12.924 9.66178 12.9518 9.58648 12.9518Z" fill="#222623"/>
<path d="M7.40284 4.93515C7.3217 4.93515 7.24388 4.90292 7.1865 4.84554C7.12912 4.78816 7.09689 4.71034 7.09689 4.6292V3.35643C7.09689 3.27529 7.12912 3.19747 7.1865 3.14009C7.24388 3.08271 7.3217 3.05048 7.40284 3.05048C7.48398 3.05048 7.5618 3.08271 7.61918 3.14009C7.67656 3.19747 7.70879 3.27529 7.70879 3.35643V4.6292C7.70879 4.66937 7.70088 4.70916 7.6855 4.74628C7.67013 4.7834 7.64759 4.81713 7.61918 4.84554C7.59077 4.87395 7.55704 4.89649 7.51992 4.91186C7.4828 4.92724 7.44302 4.93515 7.40284 4.93515ZM9.97202 6.77878C9.89487 6.77862 9.82064 6.74932 9.76417 6.69675C9.70771 6.64419 9.67318 6.57223 9.66751 6.49529C9.66183 6.41836 9.68543 6.34212 9.73357 6.28183C9.78171 6.22155 9.85085 6.18168 9.92713 6.1702L11.609 5.91844C11.6886 5.90784 11.7692 5.92895 11.8333 5.97722C11.8975 6.0255 11.9401 6.09706 11.952 6.17647C11.9639 6.25589 11.9441 6.33679 11.8969 6.40174C11.8496 6.46668 11.7788 6.51045 11.6996 6.52362L10.0177 6.77537C10.0024 6.77769 9.9871 6.77878 9.97202 6.77878ZM9.86542 10.719C9.82259 10.719 9.78023 10.7101 9.7411 10.6927C9.70196 10.6753 9.66693 10.6499 9.63827 10.6181L8.77504 9.66218C8.74811 9.63236 8.72732 9.59752 8.71386 9.55967C8.70039 9.52181 8.69451 9.48167 8.69656 9.44155C8.70069 9.3605 8.73684 9.28442 8.79707 9.23004C8.8573 9.17565 8.93666 9.14742 9.0177 9.15155C9.09874 9.15569 9.17482 9.19184 9.22921 9.25207L10.0924 10.208C10.1321 10.2519 10.1582 10.3064 10.1675 10.3648C10.1768 10.4233 10.169 10.4832 10.145 10.5372C10.121 10.5913 10.0818 10.6373 10.0321 10.6695C9.98252 10.7018 9.9246 10.719 9.86542 10.719ZM5.14468 10.719C5.08782 10.7189 5.03209 10.703 4.98376 10.6731C4.93542 10.6431 4.89639 10.6003 4.87104 10.5494C4.8457 10.4985 4.83504 10.4415 4.84026 10.3849C4.84549 10.3283 4.86639 10.2743 4.90062 10.2288L5.62136 9.27296C5.64554 9.24087 5.67581 9.21385 5.71044 9.19346C5.74506 9.17307 5.78337 9.1597 5.82316 9.15412C5.86296 9.14854 5.90346 9.15086 5.94236 9.16093C5.98126 9.17101 6.01779 9.18866 6.04987 9.21286C6.11465 9.26171 6.15738 9.3343 6.16865 9.41465C6.17992 9.495 6.15881 9.57654 6.10997 9.64133L5.38923 10.5972C5.36071 10.6351 5.32377 10.6658 5.28132 10.687C5.23888 10.7081 5.1921 10.7191 5.14468 10.719ZM4.89568 6.77878C4.87929 6.77878 4.86268 6.77747 4.84594 6.77472L3.30656 6.52296C3.22696 6.50934 3.15597 6.4648 3.10908 6.39906C3.06219 6.33331 3.04319 6.2517 3.05622 6.172C3.06926 6.0923 3.11327 6.02099 3.17867 5.97362C3.24407 5.92624 3.32555 5.90665 3.40534 5.9191L4.94472 6.17085C5.02058 6.18321 5.08902 6.22366 5.13641 6.28417C5.18381 6.34468 5.20669 6.42082 5.20051 6.49743C5.19433 6.57404 5.15954 6.64552 5.10306 6.69766C5.04658 6.74979 4.97254 6.77875 4.89568 6.77878Z" fill="#222623"/>
<path d="M7.41574 3.65232C7.35253 3.65236 7.29087 3.63282 7.23922 3.5964C7.18757 3.55998 7.14847 3.50846 7.12729 3.44891C7.1061 3.38937 7.10388 3.32472 7.12092 3.26386C7.13796 3.203 7.17343 3.14892 7.22246 3.10903L9.27803 1.43634C9.3092 1.41098 9.34505 1.39201 9.38355 1.38051C9.42205 1.36901 9.46244 1.3652 9.50241 1.36931C9.54238 1.37342 9.58115 1.38536 9.6165 1.40445C9.65186 1.42354 9.68311 1.4494 9.70846 1.48057C9.73382 1.51174 9.75279 1.54759 9.76429 1.58609C9.7758 1.62459 9.7796 1.66498 9.77549 1.70495C9.77139 1.74492 9.75945 1.78369 9.74036 1.81904C9.72127 1.8544 9.6954 1.88565 9.66423 1.911L7.6087 3.5837C7.55421 3.62812 7.48604 3.65236 7.41574 3.65232Z" fill="#222623"/>
</g>
<defs>
<clipPath id="clip0_13_1674">
<rect width="14" height="14" fill="white" transform="translate(0.44043 0.145874)"/>
</clipPath>
</defs>
</svg>
