<svg width="26" height="26" viewBox="0 0 26 26" fill="none" xmlns="http://www.w3.org/2000/svg">
<path d="M13.0002 13C15.9917 13 18.4168 10.5749 18.4168 7.58332C18.4168 4.59178 15.9917 2.16666 13.0002 2.16666C10.0086 2.16666 7.5835 4.59178 7.5835 7.58332C7.5835 10.5749 10.0086 13 13.0002 13Z" stroke="#7C7C7C" stroke-width="1.5" stroke-linecap="round" stroke-linejoin="round"/>
<path d="M3.69434 23.8333C3.69434 19.6408 7.86517 16.25 13.0002 16.25C14.0402 16.25 15.0477 16.3908 15.9902 16.6508" stroke="#7C7C7C" stroke-width="1.5" stroke-linecap="round" stroke-linejoin="round"/>
<path d="M23.8332 19.5C23.8332 19.8467 23.7898 20.1825 23.7032 20.5075C23.6057 20.9408 23.4324 21.3633 23.2049 21.7317C22.4574 22.9883 21.0815 23.8333 19.4998 23.8333C18.384 23.8333 17.3765 23.4108 16.6182 22.7175C16.2932 22.4358 16.0115 22.1 15.7948 21.7317C15.394 21.0817 15.1665 20.3125 15.1665 19.5C15.1665 18.33 15.6323 17.2575 16.3907 16.4775C17.1815 15.665 18.2865 15.1667 19.4998 15.1667C20.7782 15.1667 21.9373 15.7192 22.7173 16.6075C23.4107 17.3767 23.8332 18.395 23.8332 19.5Z" stroke="#7C7C7C" stroke-width="1.5" stroke-miterlimit="10" stroke-linecap="round" stroke-linejoin="round"/>
<path d="M21.1141 19.4783H17.8857" stroke="#7C7C7C" stroke-width="1.5" stroke-miterlimit="10" stroke-linecap="round" stroke-linejoin="round"/>
<path d="M19.5 17.8967V21.1359" stroke="#7C7C7C" stroke-width="1.5" stroke-miterlimit="10" stroke-linecap="round" stroke-linejoin="round"/>
</svg>
