<svg width="30" height="30" viewBox="0 0 30 30" fill="none" xmlns="http://www.w3.org/2000/svg">
<path d="M8.75 22.1875H6.25C3.225 22.1875 1.5625 20.525 1.5625 17.5V12.5C1.5625 9.47501 3.225 7.81251 6.25 7.81251H8.0375C8.325 7.81251 8.6125 7.72501 8.8625 7.57501L12.5125 5.28751C14.3375 4.15001 16.1125 3.93751 17.5125 4.71251C18.9125 5.48751 19.675 7.10001 19.675 9.26251V10.4625C19.675 10.975 19.25 11.4 18.7375 11.4C18.225 11.4 17.8 10.975 17.8 10.4625V9.26251C17.8 7.83751 17.3625 6.77501 16.6 6.36251C15.8375 5.93751 14.7125 6.12501 13.5 6.88751L9.85 9.16251C9.3125 9.51251 8.675 9.68751 8.0375 9.68751H6.25C4.275 9.68751 3.4375 10.525 3.4375 12.5V17.5C3.4375 19.475 4.275 20.3125 6.25 20.3125H8.75C9.2625 20.3125 9.6875 20.7375 9.6875 21.25C9.6875 21.7625 9.2625 22.1875 8.75 22.1875Z" fill="#7C7C7C"/>
<path d="M15.6875 25.7375C14.7 25.7375 13.6125 25.3875 12.525 24.7C12.0875 24.425 11.95 23.85 12.225 23.4125C12.5 22.975 13.075 22.8375 13.5125 23.1125C14.725 23.8625 15.85 24.0625 16.6125 23.6375C17.375 23.2125 17.8125 22.15 17.8125 20.7375V16.1875C17.8125 15.675 18.2375 15.25 18.75 15.25C19.2625 15.25 19.6875 15.675 19.6875 16.1875V20.7375C19.6875 22.8875 18.9125 24.5125 17.525 25.2875C16.9625 25.5875 16.3375 25.7375 15.6875 25.7375Z" fill="#7C7C7C"/>
<path d="M22.4999 20.9375C22.2999 20.9375 22.1124 20.875 21.9374 20.75C21.5249 20.4375 21.4374 19.85 21.7499 19.4375C23.3249 17.3375 23.6624 14.55 22.6499 12.1375C22.4499 11.6625 22.6749 11.1125 23.1499 10.9125C23.6249 10.7125 24.1749 10.9375 24.3749 11.4125C25.6499 14.4375 25.2124 17.95 23.2499 20.575C23.0624 20.8125 22.7874 20.9375 22.4999 20.9375Z" fill="#7C7C7C"/>
<path d="M24.7875 24.0625C24.5875 24.0625 24.4 24 24.225 23.875C23.8125 23.5625 23.725 22.975 24.0375 22.5625C26.7125 19 27.3 14.225 25.575 10.1125C25.375 9.6375 25.6 9.0875 26.075 8.8875C26.5625 8.6875 27.1 8.9125 27.3 9.3875C29.2875 14.1125 28.6125 19.5875 25.5375 23.6875C25.3625 23.9375 25.075 24.0625 24.7875 24.0625Z" fill="#7C7C7C"/>
<path d="M2.4998 28.4375C2.2623 28.4375 2.0248 28.35 1.8373 28.1625C1.4748 27.8 1.4748 27.2 1.8373 26.8375L26.8373 1.83749C27.1998 1.47499 27.7998 1.47499 28.1623 1.83749C28.5248 2.19999 28.5248 2.79999 28.1623 3.16249L3.1623 28.1625C2.9748 28.35 2.7373 28.4375 2.4998 28.4375Z" fill="#7C7C7C"/>
</svg>
