<svg width="26" height="26" viewBox="0 0 26 26" fill="none" xmlns="http://www.w3.org/2000/svg">
<path d="M17.3332 9.73915V22.0458C17.3332 23.6167 16.2065 24.2775 14.8307 23.5191L10.5732 21.1466C10.1182 20.8975 9.38149 20.8975 8.92649 21.1466L4.669 23.5191C3.29317 24.2775 2.1665 23.6167 2.1665 22.0458V9.73915C2.1665 7.88665 3.68315 6.37 5.53565 6.37H13.964C15.8165 6.37 17.3332 7.88665 17.3332 9.73915Z" stroke="#7C7C7C" stroke-width="1.5" stroke-linecap="round" stroke-linejoin="round"/>
<path d="M23.8332 5.53581V17.8425C23.8332 19.4133 22.7065 20.0741 21.3307 19.3158L17.3332 17.0841V9.73915C17.3332 7.88665 15.8165 6.37 13.964 6.37H8.6665V5.53581C8.6665 3.68331 10.1832 2.16666 12.0357 2.16666H20.464C22.3165 2.16666 23.8332 3.68331 23.8332 5.53581Z" stroke="#7C7C7C" stroke-width="1.5" stroke-linecap="round" stroke-linejoin="round"/>
<path d="M7.5835 13H11.9168" stroke="#7C7C7C" stroke-width="1.5" stroke-linecap="round" stroke-linejoin="round"/>
<path d="M9.75 15.1667V10.8333" stroke="#7C7C7C" stroke-width="1.5" stroke-linecap="round" stroke-linejoin="round"/>
</svg>
