<svg width="24" height="24" viewBox="0 0 24 24" fill="none" xmlns="http://www.w3.org/2000/svg">
<path d="M17 6V3C17 2.73478 16.8946 2.48043 16.7071 2.29289C16.5196 2.10536 16.2652 2 16 2H8C7.73478 2 7.48043 2.10536 7.29289 2.29289C7.10536 2.48043 7 2.73478 7 3V6C7 7.08672 7.25302 8.15851 7.73901 9.13049C8.225 10.1025 8.93063 10.948 9.8 11.6L10.33 12L9.8 12.4C8.93063 13.052 8.225 13.8975 7.73901 14.8695C7.25302 15.8415 7 16.9133 7 18V21C7 21.2652 7.10536 21.5196 7.29289 21.7071C7.48043 21.8946 7.73478 22 8 22H16C16.2652 22 16.5196 21.8946 16.7071 21.7071C16.8946 21.5196 17 21.2652 17 21V18C17 16.9133 16.747 15.8415 16.261 14.8695C15.775 13.8975 15.0694 13.052 14.2 12.4L13.67 12L14.2 11.6C15.0665 10.9453 15.7701 10.0993 16.2558 9.12788C16.7414 8.15649 16.9962 7.08603 17 6Z" fill="#FAFAFA"/>
<path d="M18 22H6C5.73478 22 5.48043 21.8946 5.29289 21.7071C5.10536 21.5196 5 21.2652 5 21C5 20.7348 5.10536 20.4804 5.29289 20.2929C5.48043 20.1054 5.73478 20 6 20H18C18.2652 20 18.5196 20.1054 18.7071 20.2929C18.8946 20.4804 19 20.7348 19 21C19 21.2652 18.8946 21.5196 18.7071 21.7071C18.5196 21.8946 18.2652 22 18 22ZM18 4H6C5.73478 4 5.48043 3.89464 5.29289 3.70711C5.10536 3.51957 5 3.26522 5 3C5 2.73478 5.10536 2.48043 5.29289 2.29289C5.48043 2.10536 5.73478 2 6 2H18C18.2652 2 18.5196 2.10536 18.7071 2.29289C18.8946 2.48043 19 2.73478 19 3C19 3.26522 18.8946 3.51957 18.7071 3.70711C18.5196 3.89464 18.2652 4 18 4Z" fill="#22C55E"/>
</svg>
